<?xml version="1.0" encoding="utf-8"?>
<!-- Generator: Adobe Illustrator 21.1.0, SVG Export Plug-In . SVG Version: 6.00 Build 0)  -->
<svg version="1.1" id="Calque_1" xmlns="http://www.w3.org/2000/svg" xmlns:xlink="http://www.w3.org/1999/xlink" x="0px" y="0px"
	 viewBox="0 0 24 24" style="enable-background:new 0 0 24 24;" xml:space="preserve">
<style type="text/css">
	.st0{fill:#003d04;}
</style>
<path class="st0" d="M9,19c0,0.6-0.4,1-1,1s-1-0.4-1-1V9c0-0.6,0.4-1,1-1s1,0.4,1,1V19z M13,19c0,0.6-0.4,1-1,1s-1-0.4-1-1V9
	c0-0.6,0.4-1,1-1s1,0.4,1,1V19z M17,19c0,0.6-0.4,1-1,1s-1-0.4-1-1V9c0-0.6,0.4-1,1-1s1,0.4,1,1V19z M22,2v2H2V2h5.7
	c0.9,0,1.6-1.1,1.6-2h5.3c0,0.9,0.7,2,1.6,2H22z M19,6v16H5V6H3v18h18V6H19z"/>
</svg>
