<?xml version="1.0" encoding="utf-8"?>
<!-- Generator: Adobe Illustrator 21.1.0, SVG Export Plug-In . SVG Version: 6.00 Build 0)  -->
<svg version="1.1" id="Calque_1" xmlns="http://www.w3.org/2000/svg" xmlns:xlink="http://www.w3.org/1999/xlink" x="0px" y="0px"
	 viewBox="0 0 24 24" style="enable-background:new 0 0 24 24;" xml:space="preserve">
	 <style type="text/css">
	 	.st0{fill:#006c08;}
	 </style>
	 <path class="st0" d="M21.7,3.8L18,7.1V6c0-3.3-2.7-6-6-6S6,2.7,6,6v4H3v10.7l-2,1.8L2.3,24L23,5.3C23,5.3,21.7,3.8,21.7,3.8z
	 	 M16,8.9L14.8,10H8V6c0-2.2,1.8-4,4-4s4,1.8,4,4V8.9z M21,10v14H4.6L20,10C20,10,21,10,21,10z"/>
</svg>
