<?xml version="1.0" encoding="utf-8"?>
<!-- menu -->
<svg version="1.1" id="Calque_1" xmlns="http://www.w3.org/2000/svg" xmlns:xlink="http://www.w3.org/1999/xlink" x="0px" y="0px"
	 viewBox="0 0 159.416 59.917" style="enable-background:new 0 0 159.416 59.917;" xml:space="preserve">
<style type="text/css">
	.st0{fill:#fff;}
</style>

								<g>
									<path class="st0" d="M132.693,2.666c-0.648-0.368-1.409-0.725-2.272-1.069c-0.863-0.339-1.858-0.63-2.98-0.861
											c-1.125-0.234-2.709-0.352-4.121-0.352c-1.257,0.096-2.721,0.313-3.864,0.691c-1.527,0.503-2.847,1.231-3.961,2.183
											c-1.111,0.95-1.992,2.138-2.639,3.555c-0.646,1.419-0.97,3.045-0.97,4.877c0,1.255,0.171,2.388,0.511,3.392
											c0.342,1.007,0.817,1.922,1.43,2.749c0.609,0.828,1.318,1.607,2.128,2.346c0.809,0.735,1.679,1.48,2.613,2.234
											c0.788,0.647,1.523,1.275,2.208,1.885c0.682,0.612,1.283,1.23,1.805,1.86c0.52,0.627,0.932,1.266,1.238,1.911
											c0.305,0.647,0.457,1.332,0.457,2.048c0,0.863-0.179,1.618-0.538,2.263c-0.359,0.647-0.826,1.201-1.399,1.669
											c-0.574,0.468-1.23,0.818-1.964,1.053c-0.739,0.233-1.505,0.349-2.293,0.349c-0.378,0-0.743-0.021-1.096-0.059
											c-1.728,0-2.915-0.559-4.141-1.33c-1.223-0.772-2.267-2.073-3.131-3.907h-0.431c-0.087,1.06-0.246,2.098-0.479,3.11
											c-0.135,0.7-0.314,1.4-0.563,2.007c-0.041,0.12-0.083,0.241-0.124,0.363c0.242,0.145,0.498,0.291,0.751,0.435
											c0.646,0.366,1.409,0.724,2.272,1.064c0.863,0.344,1.856,0.633,2.98,0.863c1.123,0.234,2.927,0.364,4.338,0.364
											c1.724,0,3.376-0.235,4.956-0.702c1.578-0.467,2.971-1.185,4.174-2.154c1.204-0.968,2.156-2.174,2.856-3.609
											c0.702-1.437,1.05-3.11,1.05-5.013c0-1.181-0.17-2.251-0.51-3.204c-0.344-0.949-0.792-1.831-1.348-2.64
											c-0.557-0.809-1.212-1.562-1.966-2.262c-0.755-0.703-1.546-1.392-2.371-2.075c-1.042-0.861-1.958-1.643-2.746-2.344
											c-0.791-0.7-1.447-1.364-1.969-1.993c-0.521-0.628-0.916-1.256-1.186-1.886c-0.27-0.628-0.403-1.28-0.403-1.965
											c0-0.611,0.116-1.214,0.351-1.805c0.233-0.594,0.584-1.114,1.051-1.564c0.466-0.448,1.051-0.818,1.751-1.104
											c0.7-0.287,1.5-0.432,2.396-0.432c1.73,0,2.942,0.29,4.168,1.063c1.226,0.775,2.271,2.076,3.132,3.908h0.433l0.008-0.011
											c0.32-2.198,0.764-3.929,1.432-5.213C133.311,2.993,133.365,3.043,132.693,2.666"></path>
									<path class="st0" d="M108.743,2.666c-0.646-0.368-1.406-0.725-2.271-1.069c-0.864-0.339-1.858-0.63-2.98-0.861
											c-1.125-0.234-2.707-0.352-4.118-0.352c-1.256,0.096-2.722,0.313-3.866,0.691c-1.525,0.503-2.847,1.231-3.959,2.183
											c-1.115,0.95-1.994,2.138-2.641,3.555c-0.648,1.419-0.971,3.045-0.971,4.877c0,1.255,0.17,2.388,0.512,3.392
											c0.343,1.007,0.816,1.922,1.429,2.749c0.609,0.828,1.319,1.607,2.128,2.346c0.808,0.735,1.678,1.48,2.612,2.234
											c0.788,0.647,1.526,1.275,2.21,1.885c0.68,0.612,1.284,1.23,1.805,1.86c0.521,0.627,0.933,1.266,1.239,1.911
											c0.304,0.647,0.459,1.332,0.459,2.048c0,0.863-0.182,1.618-0.54,2.263c-0.36,0.647-0.827,1.201-1.402,1.669
											c-0.573,0.468-1.229,0.818-1.964,1.053c-0.739,0.233-1.5,0.349-2.293,0.349c-0.376,0-0.741-0.021-1.096-0.059
											c-1.728,0-2.912-0.559-4.137-1.33c-1.227-0.772-2.268-2.073-3.134-3.907h-0.426c-0.09,1.112-0.264,2.199-0.512,3.258
											c-0.124,0.616-0.285,1.226-0.501,1.771c-0.051,0.151-0.102,0.303-0.153,0.453c0.239,0.145,0.493,0.289,0.745,0.433
											c0.648,0.366,1.409,0.724,2.273,1.064c0.862,0.344,1.857,0.633,2.98,0.863c1.124,0.234,2.928,0.364,4.337,0.364
											c1.724,0,3.376-0.235,4.959-0.702c1.578-0.467,2.972-1.185,4.175-2.154c1.202-0.968,2.156-2.174,2.854-3.609
											c0.702-1.437,1.053-3.11,1.053-5.013c0-1.181-0.171-2.251-0.513-3.204c-0.34-0.949-0.79-1.831-1.348-2.64
											c-0.557-0.809-1.211-1.562-1.965-2.262c-0.755-0.703-1.548-1.392-2.37-2.075c-1.043-0.861-1.957-1.643-2.749-2.344
											c-0.79-0.7-1.445-1.364-1.968-1.993c-0.521-0.628-0.915-1.256-1.184-1.886c-0.27-0.628-0.404-1.28-0.404-1.965
											c0-0.611,0.115-1.214,0.35-1.805c0.234-0.594,0.583-1.114,1.051-1.564c0.468-0.448,1.05-0.818,1.751-1.104
											c0.7-0.287,1.499-0.432,2.396-0.432c1.729,0,2.944,0.29,4.17,1.063c1.224,0.775,2.268,2.076,3.133,3.908l0.447,0.002
											c0.324-2.199,1.344-3.851,2.16-4.78C110.099,3.438,109.415,3.043,108.743,2.666"></path>
									<path class="st0" d="M32.324,3.713c-0.448-0.356-1.039-0.628-1.774-1.003c-0.712-0.363-1.547-0.719-2.495-1.06
											c-0.948-0.336-2.04-0.621-3.273-0.852c-1.233-0.232-3.31-0.349-4.858-0.349c-2.876,0-5.518,0.543-7.92,1.629
											C9.599,3.166,7.529,4.661,5.791,6.564c-1.739,1.906-3.083,4.13-4.032,6.676c-0.947,2.545-1.422,5.278-1.422,8.196
											c0,1.888,0.252,3.816,0.757,5.793c0.507,1.978,1.392,3.783,2.658,5.421c1.264,1.637,2.963,2.953,5.097,3.95
											c2.135,0.995,4.853,1.494,8.078,1.494c1.393,0,2.883-0.043,4.224-0.271c2.992-0.515,4.373-1.356,5.267-1.965l0.462-0.327
											c0.555-1.592,0.969-3.177,1.366-5.368h-0.542c-1.716,2.837-3.912,3.849-5.785,4.417c-1.393,0.411-2.444,0.53-3.694,0.53
											c-6.485,0-10.376-4.788-10.376-12.82c0-10.646,6.12-18.501,13.818-18.743c1.898,0,3.532,0.398,4.876,1.163
											c1.343,0.766,2.963,2.055,3.913,3.873l0.741-0.007C31.197,8.576,31.874,6.726,32.324,3.713"></path>
									<path class="st0" d="M158.912,1.243c-3.287,0.1-6.879,0.202-11.062,0.202c-4.222,0-9.372-0.342-9.372-0.342
											c-0.602,0.433-2.026,2.576-2.252,4.351c1.795-0.104,1.016-0.104,3.656-0.104c0.844,0,2.659,0,3.397,0.053
											c-0.571,5.248-4.504,23.182-7.136,32.574c1.54,0.044,2.992,0.112,4.334,0.18c1.524,0.076,2.233,0.138,3.598,0.26
											c0.266-2.004,0.718-5.098,2.036-11.22c3.063-14.194,4.117-18.89,5.064-21.793c1.163-0.053,1.959-0.003,2.909-0.003
											c1.393,0,3.357,0.097,3.963,0.13L158.912,1.243z"></path>
									<path class="st0" d="M56.886,38.049C60.398,25.801,64.373,1.49,64.373,1.49c-1.792-0.08-4.091-0.3-4.091-0.3
											c-0.092,1.386-0.143,2.265-0.423,3.881c-0.236,1.363-0.49,2.715-0.761,4.326c-0.27,1.613-0.571,3.305-0.904,5.076
											c-0.334,1.772-0.659,3.48-0.977,5.128s-0.627,3.188-0.928,4.623c-0.304,1.436-0.58,2.63-0.833,3.587
											c-0.477-0.708-1.104-1.673-1.881-2.896c-0.779-1.222-1.636-2.612-2.573-4.171c-0.936-1.558-1.912-3.214-2.927-4.968
											c-1.017-1.753-2.024-3.507-3.025-5.26c-0.999-1.755-1.936-3.446-2.809-5.076c-0.873-1.629-1.626-3.099-2.261-4.411
											c-2.395-0.296-4.191,0-4.191,0c-0.284,2.092-0.636,4.358-1.047,6.803c-0.413,2.444-0.849,4.916-1.309,7.412
											c-0.461,2.497-0.93,4.961-1.405,7.386c-0.478,2.428-0.929,4.669-1.357,6.723c0,0-0.917,4.722-2.072,8.835
											c0,0,2.403-0.231,4.437-0.186c0.125-1.063,0.313-2.733,0.647-4.807c0.333-2.07,0.714-4.348,1.143-6.828
											c0.428-2.479,0.896-5.021,1.405-7.625c0.508-2.603,0.904-4.587,1.381-6.784c2.763,4.499,5.272,8.563,7.938,13.009
											c2.668,4.447,5.01,8.711,7.391,13.281c0,0,2.074-0.093,4.165-0.217"></path>
									<path class="st0" d="M75.329,5.563c0,0,4.294-0.178,11.212,0.139c0,0,1.064-2.645,2.54-4.052
											C74.41,1.936,68.374,1.613,68.374,1.613c-0.143,1.134-0.381,2.675-0.717,4.622c-0.338,1.948-0.728,4.083-1.17,6.404
											c-0.443,2.32-0.921,4.747-1.436,7.28c-0.512,2.532-1.034,4.961-1.566,7.279c-0.531,2.321-1.107,4.543-1.585,6.436
											c-0.479,1.896-0.824,3.244-1.178,4.272c1.415-0.07,2.91-0.066,4.636-0.09l4.838-0.069l4.908,0.053c1.824,0,3.077,0.019,5.202,0.09
											c0,0,1.407-1.729,2.114-4.949c-4.646,1.687-12.973,1.337-12.973,1.337c0.284-2.374,0.75-4.563,1.193-6.92
											c0.442-2.354,0.911-4.702,1.408-7.04c0,0,6.712-0.033,10.07,0.398c0.285-2.326,0.842-4.059,0.842-4.059
											c-4.328,0.402-10.169,0.205-10.169,0.205c0.284-1.409,0.665-3.173,1.143-5.288C74.414,9.459,74.726,7.679,75.329,5.563"></path>
									<path class="st0" d="M8.226,51.7c90.533-7.875,133.7-2.267,133.7-2.267l1.168-5.933c0,0-47.108-5.313-134.065,6.272L8.226,51.7z
											"></path>
									<path class="st0" d="M5.946,57.316c90.737-4.995,133.908,2.036,133.908,2.036l1.24-5.914c0,0-47.004-6.841-134.285,1.978
											L5.946,57.316z"></path>
									<path class="st0" d="M68.14,37.794"></path>
								</g>


</svg>
